<svg id="Layer_1" data-name="Layer 1" xmlns="http://www.w3.org/2000/svg" viewBox="0 0 38 38"><defs><style>.cls-1,.cls-2{fill:#333;}.cls-2{fill-rule:evenodd;}</style></defs><title>dc_converter</title><path class="cls-1" d="M17.93,15a4.32,4.32,0,0,0,4-4.36h-2a2.23,2.23,0,0,1-2,2.18,1.79,1.79,0,0,1-1.28-.42,3.92,3.92,0,0,1-1-1.78,5.49,5.49,0,0,0-.91-2,3.68,3.68,0,0,0-2.71-1.24c-2.12,0-3.85,1.93-4,4.36h2a2.22,2.22,0,0,1,2-2.18,1.83,1.83,0,0,1,1.35.64l0.06,0.06a2.76,2.76,0,0,1,.36.6c0.09,0.2.18,0.46,0.28,0.73A6.35,6.35,0,0,0,15,13.5l0.35,0.42A3.68,3.68,0,0,0,17.93,15Z" transform="translate(-1 -1)"/><rect class="cls-1" x="20.17" y="26.11" width="12.25" height="2"/><rect class="cls-1" x="20.42" y="29.86" width="4.67" height="2"/><rect class="cls-1" x="27.75" y="29.86" width="4.67" height="2"/><path class="cls-2" d="M34.88,1H5.12A4.12,4.12,0,0,0,1,5.12V34.88A4.12,4.12,0,0,0,5.12,39H34.88A4.12,4.12,0,0,0,39,34.88V5.12A4.12,4.12,0,0,0,34.88,1ZM3,5.49A2.5,2.5,0,0,1,5.49,3h29a2.48,2.48,0,0,1,.91.18L3.17,35.42A2.48,2.48,0,0,1,3,34.51v-29Zm34,29a2.5,2.5,0,0,1-2.5,2.5h-29a2.48,2.48,0,0,1-.91-0.18L36.83,4.58a2.48,2.48,0,0,1,.18.91v29Z" transform="translate(-1 -1)"/></svg>