<?xml version="1.0" encoding="UTF-8" standalone="no"?>
<!-- Generator: Adobe Illustrator 19.2.0, SVG Export Plug-In . SVG Version: 6.00 Build 0)  -->

<svg
   xmlns:dc="http://purl.org/dc/elements/1.1/"
   xmlns:cc="http://creativecommons.org/ns#"
   xmlns:rdf="http://www.w3.org/1999/02/22-rdf-syntax-ns#"
   xmlns:svg="http://www.w3.org/2000/svg"
   xmlns="http://www.w3.org/2000/svg"
   xmlns:sodipodi="http://sodipodi.sourceforge.net/DTD/sodipodi-0.dtd"
   xmlns:inkscape="http://www.inkscape.org/namespaces/inkscape"
   version="1.1"
   id="Layer_1"
   x="0px"
   y="0px"
   viewBox="0 0 40 40"
   style="enable-background:new 0 0 40 40;"
   xml:space="preserve"
   inkscape:version="0.48.4 r9939"
   width="100%"
   height="100%"
   sodipodi:docname="shunt.svg"><metadata
   id="metadata3013"><rdf:RDF><cc:Work
       rdf:about=""><dc:format>image/svg+xml</dc:format><dc:type
         rdf:resource="http://purl.org/dc/dcmitype/StillImage" /><dc:title /></cc:Work></rdf:RDF></metadata><defs
   id="defs3011" /><sodipodi:namedview
   pagecolor="#ffffff"
   bordercolor="#666666"
   borderopacity="1"
   objecttolerance="10"
   gridtolerance="10"
   guidetolerance="10"
   inkscape:pageopacity="0"
   inkscape:pageshadow="2"
   inkscape:window-width="640"
   inkscape:window-height="480"
   id="namedview3009"
   showgrid="false"
   inkscape:zoom="5.9"
   inkscape:cx="20"
   inkscape:cy="20"
   inkscape:window-x="406"
   inkscape:window-y="176"
   inkscape:window-maximized="0"
   inkscape:current-layer="Layer_1" />
<style
   type="text/css"
   id="style3001">
	.st0{fill:#333333;}
</style>
<g
   id="g3003"
   transform="matrix(0,1.0233781,-0.98346424,0,39.516536,-0.62857978)">
	<polygon
   class="st0"
   points="34.5,13.4 21.5,13.4 21.5,-1 18.6,-1 18.6,13.4 5.5,13.4 5.5,16.3 34.5,16.3 "
   id="polygon3005"
   style="fill:#333333" />
	<path
   class="st0"
   d="m 21.6,40 0,0 -0.1,-16.2 0.6,0.1 c 3.8,0.6 7.1,3.1 9,6.7 l 2.6,-1.2 C 31,24.1 25.8,20.9 20,20.9 14.2,20.9 9,24.2 6.4,29.4 L 9,30.6 c 1.9,-3.6 5.2,-6.1 9,-6.7 l 0.6,-0.1 V 40"
   id="path3007"
   inkscape:connector-curvature="0"
   style="fill:#333333" />
</g>
</svg>