<?xml version="1.0" encoding="utf-8"?>
<!-- Generator: Adobe Illustrator 19.2.1, SVG Export Plug-In . SVG Version: 6.00 Build 0)  -->
<svg version="1.1" id="Layer_1" xmlns="http://www.w3.org/2000/svg" xmlns:xlink="http://www.w3.org/1999/xlink" x="0px" y="0px"
	 viewBox="0 0 38 38" style="enable-background:new 0 0 38 38;" xml:space="preserve">
<style type="text/css">
	.st0{fill:#333333;}
	.st1{fill:#FFFFFF;}
</style>
<g>
	<rect x="17.5" y="0.5" class="st0" width="3.2" height="15.7"/>
	<rect x="17.5" y="23.6" class="st0" width="3.2" height="13.4"/>
	<rect x="5.1" y="13.2" class="st0" width="27.8" height="3.2"/>
	<path class="st0" d="M5.7,28.6c2.6-5.1,7.7-8.3,13.3-8.3c5.6,0,10.7,3.2,13.3,8.3L29.5,30c-2.1-4-6.1-6.5-10.4-6.5
		c-4.4,0-8.3,2.5-10.4,6.5L5.7,28.6z"/>
	<g>
		<polygon class="st0" points="6.9,36.8 6.7,36.1 24.9,8 21.7,5.7 21.7,4.9 31.1,0.9 31.8,1.3 31.6,11.5 30.8,11.9 27.6,9.8 
			9.6,37.7 8.9,37.9 		"/>
		<path class="st1" d="M31.3,1.3l-0.2,10.2l-3.6-2.4L9.1,37.5l-2-1.1L25.6,7.8l-3.7-2.5L31.3,1.3 M30.9,0.4l-9.4,4l-0.2,1.7l2.9,1.9
			L6.3,35.8l0.4,1.4l2,1.1L10,38l17.8-27.5l2.8,1.9l1.6-0.8l0.2-10.2L30.9,0.4L30.9,0.4z"/>
	</g>
</g>
</svg>
