<?xml version="1.0" encoding="UTF-8" standalone="no"?>
<!-- Generator: Adobe Illustrator 19.2.1, SVG Export Plug-In . SVG Version: 6.00 Build 0)  -->

<svg
   xmlns:dc="http://purl.org/dc/elements/1.1/"
   xmlns:cc="http://creativecommons.org/ns#"
   xmlns:rdf="http://www.w3.org/1999/02/22-rdf-syntax-ns#"
   xmlns:svg="http://www.w3.org/2000/svg"
   xmlns="http://www.w3.org/2000/svg"
   xmlns:sodipodi="http://sodipodi.sourceforge.net/DTD/sodipodi-0.dtd"
   xmlns:inkscape="http://www.inkscape.org/namespaces/inkscape"
   version="1.1"
   id="Layer_1"
   x="0px"
   y="0px"
   viewBox="0 0 38 38"
   style="enable-background:new 0 0 38 38;"
   xml:space="preserve"
   inkscape:version="0.48.4 r9939"
   width="100%"
   height="100%"
   sodipodi:docname="staticvar_compensator.svg"><metadata
   id="metadata3033"><rdf:RDF><cc:Work
       rdf:about=""><dc:format>image/svg+xml</dc:format><dc:type
         rdf:resource="http://purl.org/dc/dcmitype/StillImage" /><dc:title></dc:title></cc:Work></rdf:RDF></metadata><defs
   id="defs3031" /><sodipodi:namedview
   pagecolor="#ffffff"
   bordercolor="#666666"
   borderopacity="1"
   objecttolerance="10"
   gridtolerance="10"
   guidetolerance="10"
   inkscape:pageopacity="0"
   inkscape:pageshadow="2"
   inkscape:window-width="640"
   inkscape:window-height="480"
   id="namedview3029"
   showgrid="false"
   inkscape:zoom="6.2105263"
   inkscape:cx="19"
   inkscape:cy="19"
   inkscape:window-x="0"
   inkscape:window-y="0"
   inkscape:window-maximized="0"
   inkscape:current-layer="Layer_1" />
<style
   type="text/css"
   id="style3011">
	.st0{fill:#333333;}
	.st1{fill:#FFFFFF;}
</style>
<g
   id="g3013"
   transform="matrix(0,1,-1,0,38.35,0.35000048)">
	<rect
   x="17.5"
   y="0.5"
   class="st0"
   width="3.2"
   height="15.7"
   id="rect3015"
   style="fill:#333333" />
	<rect
   x="17.5"
   y="23.6"
   class="st0"
   width="3.2"
   height="13.4"
   id="rect3017"
   style="fill:#333333" />
	<rect
   x="5.0999999"
   y="13.2"
   class="st0"
   width="27.799999"
   height="3.2"
   id="rect3019"
   style="fill:#333333" />
	<path
   class="st0"
   d="m 5.7,28.6 c 2.6,-5.1 7.7,-8.3 13.3,-8.3 5.6,0 10.7,3.2 13.3,8.3 L 29.5,30 C 27.4,26 23.4,23.5 19.1,23.5 14.7,23.5 10.8,26 8.7,30 l -3,-1.4 z"
   id="path3021"
   inkscape:connector-curvature="0"
   style="fill:#333333" />
	<g
   id="g3023">
		<polygon
   class="st0"
   points="6.7,36.1 24.9,8 21.7,5.7 21.7,4.9 31.1,0.9 31.8,1.3 31.6,11.5 30.8,11.9 27.6,9.8 9.6,37.7 8.9,37.9 6.9,36.8 "
   id="polygon3025"
   style="fill:#333333" />
		<path
   class="st1"
   d="M 31.3,1.3 31.1,11.5 27.5,9.1 9.1,37.5 7.1,36.4 25.6,7.8 21.9,5.3 l 9.4,-4 m -0.4,-0.9 -9.4,4 -0.2,1.7 2.9,1.9 -17.9,27.8 0.4,1.4 2,1.1 1.3,-0.3 17.8,-27.5 2.8,1.9 1.6,-0.8 0.2,-10.2 -1.5,-1 0,0 z"
   id="path3027"
   inkscape:connector-curvature="0"
   style="fill:#ffffff" />
	</g>
</g>
</svg>