<?xml version="1.0" encoding="UTF-8" standalone="no"?>
<!-- Generator: Adobe Illustrator 19.2.0, SVG Export Plug-In . SVG Version: 6.00 Build 0)  -->

<svg
   xmlns:dc="http://purl.org/dc/elements/1.1/"
   xmlns:cc="http://creativecommons.org/ns#"
   xmlns:rdf="http://www.w3.org/1999/02/22-rdf-syntax-ns#"
   xmlns:svg="http://www.w3.org/2000/svg"
   xmlns="http://www.w3.org/2000/svg"
   xmlns:sodipodi="http://sodipodi.sourceforge.net/DTD/sodipodi-0.dtd"
   xmlns:inkscape="http://www.inkscape.org/namespaces/inkscape"
   version="1.1"
   id="Layer_1"
   x="0px"
   y="0px"
   viewBox="0 0 40 40"
   style="enable-background:new 0 0 40 40;"
   xml:space="preserve"
   inkscape:version="0.48.4 r9939"
   width="100%"
   height="100%"
   sodipodi:docname="three_winding.svg"><metadata
   id="metadata3155"><rdf:RDF><cc:Work
       rdf:about=""><dc:format>image/svg+xml</dc:format><dc:type
         rdf:resource="http://purl.org/dc/dcmitype/StillImage" /></cc:Work></rdf:RDF></metadata><defs
   id="defs3153" /><sodipodi:namedview
   pagecolor="#ffffff"
   bordercolor="#666666"
   borderopacity="1"
   objecttolerance="10"
   gridtolerance="10"
   guidetolerance="10"
   inkscape:pageopacity="0"
   inkscape:pageshadow="2"
   inkscape:window-width="640"
   inkscape:window-height="480"
   id="namedview3151"
   showgrid="false"
   inkscape:zoom="5.9"
   inkscape:cx="20"
   inkscape:cy="20"
   inkscape:window-x="0"
   inkscape:window-y="0"
   inkscape:window-maximized="0"
   inkscape:current-layer="Layer_1" />
<style
   type="text/css"
   id="style3115">
	.st0{fill:none;stroke:#333333;stroke-width:3;stroke-miterlimit:10;}
</style>
<g
   id="g3117"
   transform="matrix(0,-1,1,0,0,40)">
	<g
   id="g3119">
		<path
   class="st0"
   d="m 29.1,28.3 c 0,-2.1 1.7,-3.8 3.7,-3.8 2,0 3.7,1.7 3.7,3.8"
   id="path3121"
   inkscape:connector-curvature="0"
   style="fill:none;stroke:#333333;stroke-width:3;stroke-miterlimit:10" />
		<path
   class="st0"
   d="m 21.7,28.3 c 0,-2.1 1.7,-3.8 3.7,-3.8 2,0 3.7,1.7 3.7,3.8"
   id="path3123"
   inkscape:connector-curvature="0"
   style="fill:none;stroke:#333333;stroke-width:3;stroke-miterlimit:10" />
		<line
   class="st0"
   x1="29.1"
   y1="28"
   x2="29.1"
   y2="40"
   id="line3125"
   style="fill:none;stroke:#333333;stroke-width:3;stroke-miterlimit:10" />
	</g>
	<g
   id="g3127">
		<path
   class="st0"
   d="m 11,28.3 c 0,-2.1 1.7,-3.8 3.7,-3.8 2,0 3.7,1.7 3.7,3.8"
   id="path3129"
   inkscape:connector-curvature="0"
   style="fill:none;stroke:#333333;stroke-width:3;stroke-miterlimit:10" />
		<path
   class="st0"
   d="m 3.5,28.3 c 0,-2.1 1.7,-3.8 3.7,-3.8 2.1,0 3.7,1.7 3.7,3.8"
   id="path3131"
   inkscape:connector-curvature="0"
   style="fill:none;stroke:#333333;stroke-width:3;stroke-miterlimit:10" />
		<line
   class="st0"
   x1="11"
   y1="28"
   x2="11"
   y2="40"
   id="line3133"
   style="fill:none;stroke:#333333;stroke-width:3;stroke-miterlimit:10" />
	</g>
	<g
   id="g3135">
		<path
   class="st0"
   d="m 12,12 c 0,2.1 -1.7,3.8 -3.7,3.8 -2,0 -3.7,-1.7 -3.7,-3.8"
   id="path3137"
   inkscape:connector-curvature="0"
   style="fill:none;stroke:#333333;stroke-width:3;stroke-miterlimit:10" />
		<path
   class="st0"
   d="m 19.3,12 c 0,2.1 -1.7,3.8 -3.7,3.8 -2,0 -3.7,-1.7 -3.7,-3.8"
   id="path3139"
   inkscape:connector-curvature="0"
   style="fill:none;stroke:#333333;stroke-width:3;stroke-miterlimit:10" />
		<line
   class="st0"
   x1="19.4"
   y1="12.2"
   x2="19.4"
   y2="0.2"
   id="line3141"
   style="fill:none;stroke:#333333;stroke-width:3;stroke-miterlimit:10" />
	</g>
	<g
   id="g3143">
		<path
   class="st0"
   d="m 26.7,11.8 c 0,2.1 -1.7,3.8 -3.7,3.8 -2.1,0 -3.7,-1.7 -3.7,-3.8"
   id="path3145"
   inkscape:connector-curvature="0"
   style="fill:none;stroke:#333333;stroke-width:3;stroke-miterlimit:10" />
		<path
   class="st0"
   d="m 34.1,11.8 c 0,2.1 -1.7,3.8 -3.7,3.8 -2.1,0 -3.7,-1.7 -3.7,-3.8"
   id="path3147"
   inkscape:connector-curvature="0"
   style="fill:none;stroke:#333333;stroke-width:3;stroke-miterlimit:10" />
		<line
   class="st0"
   x1="19.200001"
   y1="12"
   x2="19.200001"
   y2="0"
   id="line3149"
   style="fill:none;stroke:#333333;stroke-width:3;stroke-miterlimit:10" />
	</g>
</g>
</svg>