<?xml version="1.0" encoding="UTF-8" standalone="no"?>
<!-- Generator: Adobe Illustrator 19.2.0, SVG Export Plug-In . SVG Version: 6.00 Build 0)  -->

<svg
   xmlns:dc="http://purl.org/dc/elements/1.1/"
   xmlns:cc="http://creativecommons.org/ns#"
   xmlns:rdf="http://www.w3.org/1999/02/22-rdf-syntax-ns#"
   xmlns:svg="http://www.w3.org/2000/svg"
   xmlns="http://www.w3.org/2000/svg"
   xmlns:sodipodi="http://sodipodi.sourceforge.net/DTD/sodipodi-0.dtd"
   xmlns:inkscape="http://www.inkscape.org/namespaces/inkscape"
   version="1.1"
   id="Layer_1"
   x="0px"
   y="0px"
   viewBox="0 0 40 40"
   style="enable-background:new 0 0 40 40;"
   xml:space="preserve"
   inkscape:version="0.48.4 r9939"
   width="100%"
   height="100%"
   sodipodi:docname="two_winding.svg"><metadata
   id="metadata3069"><rdf:RDF><cc:Work
       rdf:about=""><dc:format>image/svg+xml</dc:format><dc:type
         rdf:resource="http://purl.org/dc/dcmitype/StillImage" /></cc:Work></rdf:RDF></metadata><defs
   id="defs3067" /><sodipodi:namedview
   pagecolor="#ffffff"
   bordercolor="#666666"
   borderopacity="1"
   objecttolerance="10"
   gridtolerance="10"
   guidetolerance="10"
   inkscape:pageopacity="0"
   inkscape:pageshadow="2"
   inkscape:window-width="640"
   inkscape:window-height="480"
   id="namedview3065"
   showgrid="false"
   inkscape:zoom="5.9"
   inkscape:cx="20"
   inkscape:cy="20"
   inkscape:window-x="0"
   inkscape:window-y="0"
   inkscape:window-maximized="0"
   inkscape:current-layer="Layer_1" />
<style
   type="text/css"
   id="style3029">
	.st0{fill:none;stroke:#333333;stroke-width:3;stroke-miterlimit:10;}
</style>
<g
   id="g3031"
   transform="matrix(0,1,-1,0,40,-3.7997961e-7)">
	<g
   id="g3033">
		<path
   class="st0"
   d="m 12.3,12.2 c 0,2.1 -1.7,3.8 -3.7,3.8 -2,0 -3.7,-1.7 -3.7,-3.8"
   id="path3035"
   inkscape:connector-curvature="0"
   style="fill:none;stroke:#333333;stroke-width:3;stroke-miterlimit:10" />
		<path
   class="st0"
   d="M 19.7,12.2 C 19.7,14.3 18,16 16,16 14,16 12.3,14.3 12.3,12.2"
   id="path3037"
   inkscape:connector-curvature="0"
   style="fill:none;stroke:#333333;stroke-width:3;stroke-miterlimit:10" />
		<line
   class="st0"
   x1="19.700001"
   y1="12.5"
   x2="19.700001"
   y2="0.5"
   id="line3039"
   style="fill:none;stroke:#333333;stroke-width:3;stroke-miterlimit:10" />
	</g>
	<g
   id="g3041">
		<path
   class="st0"
   d="m 27.1,12.1 c 0,2.1 -1.7,3.8 -3.7,3.8 -2.1,0 -3.7,-1.7 -3.7,-3.8"
   id="path3043"
   inkscape:connector-curvature="0"
   style="fill:none;stroke:#333333;stroke-width:3;stroke-miterlimit:10" />
		<path
   class="st0"
   d="m 34.5,12.1 c 0,2.1 -1.7,3.8 -3.7,3.8 -2,0 -3.7,-1.7 -3.7,-3.8"
   id="path3045"
   inkscape:connector-curvature="0"
   style="fill:none;stroke:#333333;stroke-width:3;stroke-miterlimit:10" />
		<line
   class="st0"
   x1="19.6"
   y1="12.2"
   x2="19.6"
   y2="0.2"
   id="line3047"
   style="fill:none;stroke:#333333;stroke-width:3;stroke-miterlimit:10" />
	</g>
	<g
   id="g3049">
		<path
   class="st0"
   d="m 27.7,27.8 c 0,-2.1 1.7,-3.8 3.7,-3.8 2,0 3.7,1.7 3.7,3.8"
   id="path3051"
   inkscape:connector-curvature="0"
   style="fill:none;stroke:#333333;stroke-width:3;stroke-miterlimit:10" />
		<path
   class="st0"
   d="M 20.3,27.8 C 20.3,25.7 22,24 24,24 c 2,0 3.7,1.7 3.7,3.8"
   id="path3053"
   inkscape:connector-curvature="0"
   style="fill:none;stroke:#333333;stroke-width:3;stroke-miterlimit:10" />
		<line
   class="st0"
   x1="20.299999"
   y1="27.5"
   x2="20.299999"
   y2="39.599998"
   id="line3055"
   style="fill:none;stroke:#333333;stroke-width:3;stroke-miterlimit:10" />
	</g>
	<g
   id="g3057">
		<path
   class="st0"
   d="m 12.9,28 c 0,-2.1 1.7,-3.8 3.7,-3.8 2.1,0 3.7,1.7 3.7,3.8"
   id="path3059"
   inkscape:connector-curvature="0"
   style="fill:none;stroke:#333333;stroke-width:3;stroke-miterlimit:10" />
		<path
   class="st0"
   d="m 5.5,28 c 0,-2.1 1.7,-3.8 3.7,-3.8 2,0 3.7,1.7 3.7,3.8"
   id="path3061"
   inkscape:connector-curvature="0"
   style="fill:none;stroke:#333333;stroke-width:3;stroke-miterlimit:10" />
		<line
   class="st0"
   x1="20.4"
   y1="27.700001"
   x2="20.4"
   y2="39.799999"
   id="line3063"
   style="fill:none;stroke:#333333;stroke-width:3;stroke-miterlimit:10" />
	</g>
</g>
</svg>