<?xml version="1.0" encoding="utf-8"?>
<!-- Generator: Adobe Illustrator 19.2.1, SVG Export Plug-In . SVG Version: 6.00 Build 0)  -->
<svg version="1.1" id="Layer_1" xmlns="http://www.w3.org/2000/svg" xmlns:xlink="http://www.w3.org/1999/xlink" x="0px" y="0px"
	 viewBox="0 0 38 38" style="enable-background:new 0 0 38 38;" xml:space="preserve">
<style type="text/css">
	.st0{fill:#333333;}
	.st1{fill:none;stroke:#333333;stroke-width:2;stroke-miterlimit:10;}
	.st2{fill:#ED1C24;}
	.st3{fill:#FFFFFF;}
</style>
<path class="st0" d="M15.9,14.5c2.1,0,3.9-1.9,4-4.4h-2c-0.1,1.2-1,2.2-2,2.2c-0.6,0-1-0.2-1.3-0.4c-0.6-0.6-0.9-1.3-1-1.8
	c-0.1-0.3-0.4-1.4-0.9-2c-0.7-0.8-1.7-1.2-2.7-1.2c-2.1,0-3.9,1.9-4,4.4h2c0.1-1.2,1-2.2,2-2.2c0.5,0,1,0.2,1.4,0.6l0.1,0.1
	c0.1,0.1,0.2,0.3,0.4,0.6c0.1,0.2,0.2,0.5,0.3,0.7c0.2,0.6,0.5,1.3,0.9,1.9c0.1,0.1,0.3,0.4,0.3,0.4C14,14.1,15,14.5,15.9,14.5z"/>
<line class="st1" x1="19.2" y1="27.6" x2="31.4" y2="27.6"/>
<line class="st1" x1="19.4" y1="31.3" x2="24.1" y2="31.3"/>
<line class="st1" x1="26.7" y1="31.3" x2="31.4" y2="31.3"/>
<g>
	<polygon class="st2" points="7.9,15.8 13.3,7.6 11.3,6.3 17.5,3.6 17.4,10.4 15.5,9.1 10.3,17.1 	"/>
	<g>
		<path class="st3" d="M17.3,4L17.2,10l-1.7-1.2l-5.2,8l-1.9-1.1l5.4-8.2l-1.8-1.2L17.3,4 M17.8,3.3l-0.7,0.3l-5.5,2.3l-0.8,0.4
			l0.8,0.5l1.4,0.9l-5.1,7.8l-0.3,0.5L8,16.2l1.9,1.1l0.4,0.2l0.3-0.4l5-7.6l1.3,0.9l0.8,0.5l0-0.9L17.8,4L17.8,3.3L17.8,3.3z"/>
	</g>
</g>
<g>
	<g>
		<path class="st0" d="M34,2c1.1,0,2,0.9,2,2v30c0,1.1-0.9,2-2,2H4c-1.1,0-2-0.9-2-2V4c0-1.1,0.9-2,2-2h14.1h8H34 M34,0h-7.9
			c-2.2,0-5.8,0-8,0H4C1.8,0,0,1.8,0,4v30c0,2.2,1.8,4,4,4h30c2.2,0,4-1.8,4-4V4C38,1.8,36.2,0,34,0L34,0z"/>
	</g>
	<line class="st1" x1="1.5" y1="35.9" x2="36.3" y2="1.2"/>
</g>
</svg>
