<?xml version="1.0" encoding="UTF-8" standalone="no"?>
<!-- Created with Inkscape (http://www.inkscape.org/) -->

<svg
   xmlns:dc="http://purl.org/dc/elements/1.1/"
   xmlns:cc="http://creativecommons.org/ns#"
   xmlns:rdf="http://www.w3.org/1999/02/22-rdf-syntax-ns#"
   xmlns:svg="http://www.w3.org/2000/svg"
   xmlns="http://www.w3.org/2000/svg"
   xmlns:sodipodi="http://sodipodi.sourceforge.net/DTD/sodipodi-0.dtd"
   xmlns:inkscape="http://www.inkscape.org/namespaces/inkscape"
   width="48px"
   height="48px"
   id="svg5061"
   version="1.1"
   inkscape:version="0.48.4 r9939"
   sodipodi:docname="New document 19">
  <defs
     id="defs5063" />
  <sodipodi:namedview
     id="base"
     pagecolor="#ffffff"
     bordercolor="#666666"
     borderopacity="1.0"
     inkscape:pageopacity="0.0"
     inkscape:pageshadow="2"
     inkscape:zoom="7"
     inkscape:cx="24"
     inkscape:cy="24"
     inkscape:current-layer="layer1"
     showgrid="true"
     inkscape:grid-bbox="true"
     inkscape:document-units="px"
     inkscape:window-width="635"
     inkscape:window-height="550"
     inkscape:window-x="175"
     inkscape:window-y="175"
     inkscape:window-maximized="0" />
  <metadata
     id="metadata5066">
    <rdf:RDF>
      <cc:Work
         rdf:about="">
        <dc:format>image/svg+xml</dc:format>
        <dc:type
           rdf:resource="http://purl.org/dc/dcmitype/StillImage" />
        <dc:title></dc:title>
      </cc:Work>
    </rdf:RDF>
  </metadata>
  <g
     id="layer1"
     inkscape:label="Layer 1"
     inkscape:groupmode="layer">
    <g
       id="g4715"
       transform="matrix(1.25142,0,0,1.2479267,-1920.4386,-1064.0673)">
      <g
         id="g4717">
        <path
           id="path4719"
           d="m 1568.9,854.9 c 1.1,0 2,0.9 2,2 v 30 c 0,1.1 -0.9,2 -2,2 h -30 c -1.1,0 -2,-0.9 -2,-2 v -30 c 0,-1.1 0.9,-2 2,-2 h 14.1 8 7.9 m 0,-2 h -7.9 c -2.2,0 -5.8,0 -8,0 h -14.1 c -2.2,0 -4,1.8 -4,4 v 30 c 0,2.2 1.8,4 4,4 h 30 c 2.2,0 4,-1.8 4,-4 v -30 c 0,-2.2 -1.8,-4 -4,-4 l 0,0 z"
           class="st1"
           inkscape:connector-curvature="0"
           style="fill:#333333" />
      </g>
      <line
         id="line4721"
         y2="854.09998"
         x2="1571.2"
         y1="888.79999"
         x1="1536.4"
         class="st2"
         style="fill:none;stroke:#333333;stroke-width:2;stroke-miterlimit:10" />
    </g>
    <path
       id="path4699"
       d="m 18.505661,20.800825 c 2.627982,0 4.880538,-2.371061 5.00568,-5.490879 h -2.50284 c -0.125146,1.497513 -1.251419,2.74544 -2.50284,2.74544 -0.750853,0 -1.25142,-0.249585 -1.626846,-0.499172 -0.750852,-0.748755 -1.126278,-1.622303 -1.25142,-2.246268 -0.125145,-0.374378 -0.500568,-1.747096 -1.126278,-2.495853 -0.875993,-0.998341 -2.127415,-1.497511 -3.378834,-1.497511 -2.6279821,0 -4.8805387,2.371059 -5.005681,5.490877 h 2.5028411 c 0.1251456,-1.497513 1.25142,-2.74544 2.5028399,-2.74544 0.62571,0 1.251419,0.249587 1.751989,0.748757 l 0.125146,0.124792 c 0.125145,0.124794 0.250284,0.374378 0.500567,0.748757 0.125147,0.249586 0.250284,0.623964 0.375426,0.873549 0.250283,0.748756 0.62571,1.622305 1.126278,2.371061 0.125145,0.124792 0.375426,0.49917 0.375426,0.49917 0.750852,0.873549 1.877129,1.37272 3.12855,1.37272 z"
       class="st1"
       inkscape:connector-curvature="0"
       style="fill:#333333" />
    <g
       transform="matrix(1.25142,0,0,1.2479267,-1921.9462,-1063.1541)"
       id="g4707"
       style="fill:#ff0000">
      <polygon
         id="polygon4709"
         points="1550.4,862.1 1545.1,870.1 1542.8,868.8 1548.1,860.6 1546.2,859.2 1552.4,856.6 1552.3,863.4 "
         class="st3"
         style="fill:#ff0000" />
      <g
         id="g4711"
         style="fill:#ff0000">
        <path
           inkscape:connector-curvature="0"
           id="path4713"
           d="m 1552.2,857 -0.1,5.9 -1.7,-1.2 -5.2,8 -1.9,-1.1 5.4,-8.2 -1.8,-1.2 5.3,-2.2 m 0.5,-0.8 -0.7,0.3 -5.5,2.3 -0.8,0.4 0.8,0.5 1.4,0.9 -5.1,7.8 -0.3,0.5 0.5,0.3 1.9,1.1 0.4,0.2 0.3,-0.4 5,-7.6 1.3,0.9 0.8,0.5 0,-0.9 0.1,-5.9 -0.1,-0.9 0,0 z"
           class="st4"
           style="fill:#ff0000" />
      </g>
    </g>
    <line
       id="line4703-5"
       y2="39.428959"
       x2="30.533165"
       y1="39.428959"
       x1="24.805769"
       class="st2"
       style="fill:none;stroke:#333333;stroke-width:2.51918602;stroke-miterlimit:10"
       inkscape:transform-center-y="1.4011874" />
    <line
       class="st2"
       x1="24.927671"
       y1="35.79863"
       x2="40.195087"
       y2="35.79863"
       id="line3822-7"
       style="fill:none;stroke:#333333;stroke-width:2.49934435;stroke-miterlimit:10" />
    <line
       id="line4703-5-1"
       y2="39.42897"
       x2="40.203228"
       y1="39.42897"
       x1="34.475834"
       class="st2"
       style="fill:none;stroke:#333333;stroke-width:2.51918602;stroke-miterlimit:10"
       inkscape:transform-center-y="1.4011892" />
  </g>
</svg>
